<?xml version="1.0" encoding="UTF-8" standalone="no"?>
<!-- Created with Inkscape (http://www.inkscape.org/) -->

<svg
   width="210mm"
   height="297mm"
   viewBox="0 0 210 297"
   version="1.1"
   id="svg26703"
   xml:space="preserve"
   inkscape:version="1.2.2 (732a01da63, 2022-12-09)"
   sodipodi:docname="icono.svg"
   xmlns:inkscape="http://www.inkscape.org/namespaces/inkscape"
   xmlns:sodipodi="http://sodipodi.sourceforge.net/DTD/sodipodi-0.dtd"
   xmlns="http://www.w3.org/2000/svg"
   xmlns:svg="http://www.w3.org/2000/svg"><sodipodi:namedview
     id="namedview26705"
     pagecolor="#ffffff"
     bordercolor="#000000"
     borderopacity="0.25"
     inkscape:showpageshadow="2"
     inkscape:pageopacity="0.0"
     inkscape:pagecheckerboard="0"
     inkscape:deskcolor="#d1d1d1"
     inkscape:document-units="mm"
     showgrid="false"
     inkscape:zoom="0.71624579"
     inkscape:cx="435.60465"
     inkscape:cy="397.21001"
     inkscape:window-width="1920"
     inkscape:window-height="991"
     inkscape:window-x="-9"
     inkscape:window-y="-9"
     inkscape:window-maximized="1"
     inkscape:current-layer="layer1" /><defs
     id="defs26700" /><g
     inkscape:label="Layer 1"
     inkscape:groupmode="layer"
     id="layer1"><path
       style="fill:#000000;stroke-width:0.134823"
       d="m 92.927375,97.945565 c -1.15439,-0.21959 -2.64679,-0.74274 -4.15922,-1.45798 -1.00712,-0.47628 -1.01409,-0.47744 -1.73902,-0.28823 -2.84512,0.74259 -6.73746,1.17545 -10.66478,1.18602 -3.25849,0.009 -4.79339,-0.12032 -7.21307,-0.60657 -4.1916,-0.84235 -7.2015,-2.09593 -13.5498,-5.64324 -3.61379,-2.01932 -7.28284,-3.85261 -8.76355,-4.37883 -1.1873,-0.42194 -2.84809,-0.81912 -3.95495,-0.94583 -0.9679,-0.1108 -0.89908,-0.25306 0.10652,-0.2202 2.42877,0.0793 6.02622,1.57227 12.47715,5.17791 6.71797,3.75488 9.81343,5.03467 14.0891,5.82501 4.72612,0.8736 10.1582,0.77591 15.74233,-0.28309 1.02051,-0.19354 1.88455,-0.39892 1.92008,-0.45642 0.0356,-0.0575 -0.37474,-0.36559 -0.91171,-0.68467 -3.63246,-2.15849 -7.30678,-4.99178 -10.26286,-7.91375 -3.91183,-3.86671 -6.43071,-7.64687 -9.13361,-13.70704 l -0.89881,-2.01523 -1.12642,-0.35721 c -2.66688,-0.84571 -4.28077,-2.03672 -5.08551,-3.75299 -0.32199,-0.68671 -0.35528,-0.9093 -0.35528,-2.3756 0,-1.528 0.0225,-1.66283 0.40447,-2.42683 1.193,-2.386 2.40572,-1.03927 5.15983,5.73002 l 1.17936,2.89871 0.66155,0.16357 c 1.9484,0.48173 7.06916,0.68442 11.47014,0.45399 1.63136,-0.0854 4.17953,-0.18997 5.6626,-0.23234 3.37626,-0.0965 3.92418,0.008 6.72054,1.28637 2.05225,0.93791 3.64723,1.48797 3.81834,1.31686 0.0493,-0.0492 -0.61829,-0.81248 -1.48334,-1.69615 -1.55162,-1.58506 -1.84584,-2.07235 -1.36308,-2.2576 0.11537,-0.0443 1.22261,0.25977 2.46054,0.67563 2.59913,0.87315 4.05406,1.23682 4.23283,1.05804 0.18586,-0.18585 -0.43539,-0.84114 -1.27826,-1.3483 -0.40685,-0.24481 -1.54721,-0.71567 -2.53413,-1.04639 -3.15408,-1.05689 -3.14328,-1.27365 0.0838,-1.68209 2.25642,-0.28559 4.17247,-0.69641 4.83694,-1.03707 0.37118,-0.19031 0.37895,-0.21077 0.13482,-0.35506 -0.17944,-0.10606 -1.30702,-0.14225 -3.66914,-0.11776 -3.51009,0.0364 -3.93781,-0.017 -3.93781,-0.49109 0,-0.53786 1.0265,-1.0552 3.64448,-1.83681 2.35659,-0.70356 3.14822,-1.01306 2.99165,-1.16963 -0.21905,-0.21906 -2.60516,-0.294 -3.81766,-0.11992 -0.62325,0.0895 -1.72054,0.3102 -2.43843,0.49046 -1.53891,0.38641 -1.84269,0.40298 -1.95638,0.10673 -0.0601,-0.15667 0.18645,-0.47815 0.84688,-1.1042 0.51243,-0.48575 1.283,-1.21569 1.71239,-1.6221 1.03339,-0.97809 0.98889,-1.17023 -0.2657,-1.14719 -1.16445,0.0213 -1.70114,0.24828 -4.41631,1.86709 -3.27756,1.95411 -5.4604,2.82659 -8.75265,3.49841 -2.67811,0.5465 -3.93432,0.67772 -6.49102,0.67804 -2.09776,2.7e-4 -2.59138,-0.0421 -3.64025,-0.31168 -4.01368,-1.03195 -6.99331,-3.86228 -7.18335,-6.8234 -0.20875,-3.25274 2.57784,-7.42116 5.94634,-8.89507 1.78206,-0.77975 4.39769,-1.02294 6.69738,-0.62269 2.33411,0.40623 5.29308,1.53952 7.16546,2.74436 1.69332,1.08963 3.5391,2.79038 6.08502,5.6069 0.77291,0.85504 0.77967,0.85891 1.06128,0.60671 0.15589,-0.13961 0.92609,-1.10322 1.71157,-2.14137 2.56434,-3.3892 4.81816,-5.35562 7.18415,-6.26804 1.979925,-0.76354 3.291755,-0.99154 5.712245,-0.99281 1.58378,-8.2e-4 2.40805,0.0603 3.10095,0.23002 4.54756,1.1138 7.28346,3.91772 8.0303,8.22994 0.20621,1.19059 0.088,4.79573 -0.19946,6.08139 -1.3838,6.18992 -4.15904,11.46157 -7.34581,13.9536 -2.73627,2.13974 -4.84817,2.87324 -8.304825,2.88443 -2.78451,0.009 -5.32639,-0.48022 -9.38963,-1.80714 -2.58727,-0.84491 -4.29085,-1.66481 -5.28198,-2.5421 -0.87168,-0.77157 -1.41848,-1.09618 -1.84648,-1.09618 -0.4189,0 -0.80696,0.24586 -0.80551,0.51034 0.002,0.37193 0.72074,1.51034 1.55041,2.45579 1.752,1.99649 1.67017,2.0338 -1.98274,0.90442 -3.44661,-1.06561 -3.84034,-1.17234 -4.32818,-1.17331 -0.4829,-8.2e-4 -0.37917,0.1969 0.46941,0.89534 0.91751,0.75517 1.88528,1.31163 3.81165,2.19163 0.93885,0.42889 1.80403,0.87681 1.92258,0.99537 0.19754,0.19754 0.18377,0.22355 -0.1647,0.31101 -0.20915,0.0525 -1.83259,-0.0406 -3.60766,-0.2068 -3.27726,-0.30693 -4.14358,-0.29276 -4.14358,0.0677 0,0.51832 1.76802,1.06646 4.74139,1.46998 2.33851,0.31737 2.75412,0.52294 2.15445,1.06565 -0.1374,0.12434 -1.30366,0.64997 -2.5917,1.16805 -1.28804,0.51809 -2.42655,1.02664 -2.53003,1.13012 -0.33845,0.33845 -0.0372,0.48366 1.00348,0.48366 0.81096,0 1.33426,-0.10583 2.66662,-0.5393 0.91171,-0.29661 1.78886,-0.5393 1.94921,-0.5393 0.4939,0 0.35768,0.67159 -0.45,2.21864 -0.40784,0.7812 -0.74152,1.50807 -0.74152,1.61527 0,0.67407 1.05156,0.10885 2.39256,-1.28601 1.78004,-1.85155 1.87932,-1.87339 8.51923,-1.87488 4.68814,-8.2e-4 6.40455,-0.0899 8.112835,-0.41972 l 0.756,-0.14598 1.01544,-1.36819 c 2.20666,-2.97326 3.77184,-4.45122 5.08968,-4.80608 1.78611,-0.48095 2.19922,1.73029 0.61137,3.27239 -1.02022,0.99082 -3.38412,2.20168 -5.48127,2.80766 l -1.07626,0.31099 -1.02349,1.28732 c -1.437985,1.80864 -4.190755,4.49299 -5.704165,5.56236 -1.49593,1.05703 -3.15397,1.91661 -5.09658,2.64223 l -1.38974,0.5191 1.1964,0.55587 c 0.65802,0.30573 1.73843,0.72062 2.40091,0.92199 1.07253,0.326 1.42612,0.367 3.22688,0.37414 1.81975,0.007 2.16417,-0.0306 3.43801,-0.37756 2.176715,-0.59285 4.419085,-1.51497 9.370265,-3.85328 5.23625,-2.47294 8.28042,-3.71691 11.05555,-4.51776 6.20871,-1.79169 12.58179,-1.86759 16.74776,-0.19945 1.2704,0.50869 3.42993,1.9077 3.23918,2.09844 -0.0452,0.0452 -0.47083,-0.19523 -0.94589,-0.53423 -2.60525,-1.85906 -5.94208,-2.62992 -10.68196,-2.46765 -5.7214,0.19585 -9.73723,1.39897 -18.87535,5.65493 -6.23745,2.90501 -8.08549,3.64962 -10.448855,4.21003 -1.29087,0.30609 -3.76368,0.3736 -5.00881,0.13673 z m -4.15288,-2.49718 c 3.24827,-1.03769 5.77686,-2.59488 8.52584,-5.2505 1.46069,-1.41109 3.714965,-3.99007 3.587475,-4.10422 -0.0291,-0.026 -0.50793,0.0409 -1.064095,0.14884 -0.74022,0.14365 -2.67303,0.22148 -7.21307,0.29046 -5.48071,0.0833 -6.26362,0.12165 -6.73271,0.32996 -0.29193,0.12965 -1.14829,0.83649 -1.903,1.57078 -1.06338,1.03458 -1.48285,1.3558 -1.8638,1.42727 -1.0866,0.20385 -1.0705,-0.53244 0.0547,-2.49999 0.67637,-1.18275 0.76311,-1.48307 0.42831,-1.48307 -0.14297,0 -0.92062,0.22152 -1.72808,0.49227 -2.28273,0.76539 -4.23203,0.7863 -4.23203,0.0454 0,-0.3651 0.38798,-0.586 2.59143,-1.47552 2.93994,-1.18682 3.25984,-1.36977 2.70041,-1.54448 -0.12977,-0.0405 -1.11567,-0.19981 -2.19089,-0.35395 -3.175,-0.45517 -4.60021,-0.92935 -4.69164,-1.56093 -0.10222,-0.7062 0.9691,-0.7942 4.73775,-0.38919 1.13408,0.12187 2.30053,0.20049 2.59211,0.17468 l 0.53014,-0.0469 -0.5393,-0.23358 c -2.77337,-1.20122 -4.37423,-2.11001 -5.30515,-3.01167 -1.49875,-1.45166 -0.51595,-1.469 3.90357,-0.0689 2.5399,0.80464 3.0869,0.9559 3.08669,0.85356 -1.1e-4,-0.0517 -0.45005,-0.63606 -0.99987,-1.29877 -1.62601,-1.95984 -1.90164,-2.81263 -1.02625,-3.17523 0.67188,-0.27829 1.24437,-0.0684 2.37329,0.8702 1.61767,1.34493 3.16862,2.04741 6.98263,3.1627 3.41628,0.99897 4.99812,1.26905 7.50103,1.28067 2.457155,0.0114 3.425525,-0.15725 5.190715,-0.90413 3.83534,-1.62278 6.61281,-4.91044 8.81212,-10.43085 2.2797,-5.72213 2.57536,-10.87221 0.82362,-14.3461 -0.83235,-1.65062 -2.48348,-3.19936 -4.37761,-4.10612 -3.29739,-1.57854 -8.26399,-1.48753 -11.872805,0.21755 -1.16678,0.55127 -2.7238,1.73646 -3.90494,2.9724 -0.95148,0.9956 -1.38705,1.52437 -3.20418,3.88977 -1.34,1.74431 -1.31675,1.74504 -3.00131,-0.0944 -3.45775,-3.7756 -5.98007,-5.6152 -9.29591,-6.77972 -5.71838,-2.0083 -10.40678,-1.09627 -13.34915,2.59681 -2.11861,2.65914 -2.75752,5.55452 -1.69979,7.70306 1.05643,2.14592 3.47944,3.93091 6.3528,4.68 3.7442,0.97611 11.10296,-0.009 15.68515,-2.09982 0.58121,-0.2652 2.02443,-1.05943 3.20716,-1.76498 1.18273,-0.70554 2.44391,-1.39849 2.80262,-1.53987 0.84208,-0.33192 2.12729,-0.47452 2.60708,-0.28928 0.7056,0.27243 0.50491,0.63085 -1.34675,2.40519 -1.00057,0.95879 -1.62628,1.64989 -1.49535,1.6516 0.12383,0.002 0.85188,-0.14625 1.61789,-0.32858 1.96718,-0.46825 3.63964,-0.66041 4.8612,-0.55853 1.20008,0.10008 1.72226,0.26208 1.72226,0.53429 0,0.27241 -0.59938,0.52182 -2.96613,1.23422 -2.49996,0.75249 -3.81053,1.33316 -3.74687,1.66011 0.0397,0.20363 0.38102,0.22531 3.54696,0.22531 3.68276,0 4.312855,0.0855 4.219095,0.57237 -0.09631,0.50022 -1.728705,0.977 -4.745715,1.38612 -2.52759,0.34276 -2.79801,0.39575 -2.71391,0.53182 0.037,0.06 0.92484,0.39989 1.97291,0.75549 1.04807,0.3556 2.27722,0.86982 2.73144,1.1427 0.80228,0.48198 1.49024,1.24224 1.38865,1.53454 -0.0291,0.0836 -0.41216,0.13934 -0.91313,0.13284 -0.68286,-0.009 -1.37604,-0.18481 -3.31977,-0.84265 -1.35118,-0.4573 -2.51909,-0.83145 -2.59536,-0.83145 -0.39888,0 0.0139,0.5691 1.41182,1.94641 0.85275,0.84019 1.55047,1.6192 1.55047,1.73113 0,0.60703 -1.3393,0.28658 -4.14654,-0.99215 -2.87606,-1.31008 -3.24957,-1.38216 -6.70678,-1.2942 -1.55723,0.0396 -4.45854,0.14446 -6.44739,0.23297 -3.84121,0.17095 -7.75962,0.0402 -10.00113,-0.33353 -0.59322,-0.0989 -1.09366,-0.16699 -1.11207,-0.15124 -0.13367,0.11431 2.13147,4.93902 3.21743,6.8531 0.88063,1.55219 2.66969,4.21769 3.54857,5.28698 3.39709,4.13309 8.21928,8.18167 13.35624,11.21352 0.66738,0.39389 1.25101,0.71681 1.29697,0.71762 0.046,8.2e-4 0.46623,-0.12079 0.93395,-0.27022 z m 14.101135,-10.19213 c 2.55222,-0.84738 4.86709,-2.24744 5.49913,-3.32593 0.70058,-1.19545 0.27305,-2.39684 -0.78248,-2.19883 -0.65772,0.1234 -1.94912,1.01992 -2.81263,1.9526 -0.96717,1.04468 -3.18725,3.92418 -3.0255,3.92418 0.0337,0 0.53836,-0.15841 1.12148,-0.35202 z M 65.848095,71.136825 c 0,-0.0249 -0.48076,-1.23314 -1.06835,-2.68495 -1.60738,-3.97147 -2.69493,-6.024 -3.45614,-6.52277 -0.30309,-0.19859 -0.35686,-0.19752 -0.67884,0.0135 -1.0653,0.69801 -1.39537,3.61706 -0.60979,5.39298 0.3786,0.8559 1.53018,2.02274 2.57191,2.60601 1.12975,0.63253 3.24121,1.41119 3.24121,1.19529 z"
       id="path27199" /></g></svg>
