<?xml version="1.0" encoding="UTF-8" standalone="no"?>
<!-- Created with Inkscape (http://www.inkscape.org/) -->

<svg
   width="300"
   height="300"
   viewBox="0 0 79.375 79.374999"
   version="1.1"
   id="svg560"
   inkscape:version="1.2.2 (732a01da63, 2022-12-09)"
   sodipodi:docname="new.svg"
   xmlns:inkscape="http://www.inkscape.org/namespaces/inkscape"
   xmlns:sodipodi="http://sodipodi.sourceforge.net/DTD/sodipodi-0.dtd"
   xmlns="http://www.w3.org/2000/svg"
   xmlns:svg="http://www.w3.org/2000/svg">
  <sodipodi:namedview
     id="namedview562"
     pagecolor="#ffffff"
     bordercolor="#000000"
     borderopacity="0.25"
     inkscape:showpageshadow="2"
     inkscape:pageopacity="0.0"
     inkscape:pagecheckerboard="0"
     inkscape:deskcolor="#d1d1d1"
     inkscape:document-units="mm"
     showgrid="false"
     inkscape:zoom="2.025849"
     inkscape:cx="158.45208"
     inkscape:cy="152.77545"
     inkscape:window-width="1920"
     inkscape:window-height="991"
     inkscape:window-x="-9"
     inkscape:window-y="-9"
     inkscape:window-maximized="1"
     inkscape:current-layer="layer1" />
  <defs
     id="defs557" />
  <g
     inkscape:label="Layer 1"
     inkscape:groupmode="layer"
     id="layer1">
    <path
       style="fill:#ffffff;stroke-width:0.108879;stroke:#ffffff"
       d="m 41.298157,57.837923 c -0.932253,-0.177335 -2.137475,-0.599817 -3.358872,-1.177426 -0.813323,-0.384629 -0.818952,-0.385567 -1.404383,-0.232767 -2.297643,0.599697 -5.440991,0.949263 -8.612588,0.957798 -2.631468,0.0073 -3.871011,-0.09716 -5.825078,-0.489849 C 18.712215,56.21542 16.2815,55.203063 11.154787,52.338352 8.2363886,50.707605 5.2733633,49.22709 4.0775819,48.802129 3.1187515,48.461381 1.7775427,48.14063 0.88367225,48.038302 c -0.78164945,-0.08948 -0.7260716,-0.204364 0.0860176,-0.177827 1.96140845,0.06404 4.86661095,1.269722 10.07620615,4.181539 5.425249,3.032338 7.92506,4.065862 11.377974,4.704119 3.816685,0.705494 8.203484,0.626604 12.713075,-0.228617 0.824138,-0.156297 1.521911,-0.322156 1.550604,-0.368592 0.02875,-0.04643 -0.302629,-0.295241 -0.736271,-0.55292 C 33.017802,53.852865 30.050521,51.56478 27.663272,49.205075 24.504185,46.082426 22.470005,43.02967 20.287217,38.135643 l -0.725849,-1.627445 -0.909665,-0.288473 c -2.153699,-0.682971 -3.457035,-1.644799 -4.10692,-3.030811 -0.26003,-0.554568 -0.286915,-0.734327 -0.286915,-1.918471 0,-1.23397 0.01818,-1.342856 0.32664,-1.959842 0.963434,-1.926869 1.942794,-0.839286 4.166938,4.627408 l 0.952419,2.340918 0.534249,0.132095 c 1.573476,0.389032 5.70886,0.552719 9.262973,0.366632 1.317442,-0.06897 3.375274,-0.153416 4.572961,-0.187631 2.726576,-0.07793 3.169062,0.0065 5.427325,1.038838 1.65734,0.757428 2.945404,1.201642 3.083589,1.063459 0.03981,-0.03974 -0.499315,-0.656138 -1.197907,-1.369765 -1.253046,-1.280051 -1.490651,-1.673574 -1.100786,-1.823177 0.09317,-0.03577 0.987347,0.209784 1.987066,0.545621 2.098985,0.705132 3.273947,0.998823 3.418317,0.854445 0.150096,-0.150088 -0.351609,-0.679283 -1.032287,-1.088851 -0.328562,-0.197702 -1.249486,-0.577954 -2.046494,-0.845037 -2.547149,-0.853514 -2.538427,-1.028565 0.06768,-1.35841 1.822223,-0.230634 3.369573,-0.562401 3.906181,-0.837509 0.299754,-0.153689 0.306029,-0.170212 0.108871,-0.286737 -0.144912,-0.08565 -1.055514,-0.114881 -2.963096,-0.0951 -2.834653,0.0294 -3.180069,-0.01374 -3.180069,-0.396592 0,-0.434363 0.828972,-0.852152 2.943182,-1.483357 1.903119,-0.568176 2.542417,-0.81812 2.415975,-0.944563 -0.176898,-0.176905 -2.103855,-0.237426 -3.083037,-0.09683 -0.50332,0.07228 -1.389463,0.250507 -1.96921,0.396081 -1.242783,0.312054 -1.488107,0.325435 -1.57992,0.0862 -0.04853,-0.126523 0.150572,-0.38614 0.683918,-0.891722 0.413824,-0.392278 1.036115,-0.981759 1.38288,-1.309962 0.834536,-0.789881 0.7986,-0.945047 -0.214573,-0.926441 -0.940378,0.01719 -1.373794,0.200505 -3.566492,1.50781 -2.646868,1.578086 -4.40967,2.282677 -7.068401,2.825222 -2.162768,0.441339 -3.17725,0.547308 -5.241971,0.547567 -1.694095,2.17e-4 -2.092728,-0.034 -2.939767,-0.251706 -3.241338,-0.833375 -5.647605,-3.11907 -5.801077,-5.51039 -0.168581,-2.626824 2.081794,-5.993126 4.802102,-7.183416 1.439143,-0.629705 3.551455,-0.826099 5.408621,-0.502867 1.884965,0.328059 4.274548,1.243273 5.78663,2.216269 1.367479,0.879956 2.85808,2.253436 4.914096,4.52798 0.624182,0.690506 0.62964,0.693632 0.857062,0.489963 0.125899,-0.112748 0.747885,-0.89093 1.382217,-1.729312 2.07089,-2.737026 3.891015,-4.325054 5.801723,-5.0619 1.598935,-0.616613 2.658332,-0.80074 4.613054,-0.801764 1.279018,-6.63e-4 1.94468,0.04871 2.504244,0.185756 3.672482,0.899475 5.881925,3.163845 6.48505,6.646276 0.166533,0.961487 0.07101,3.872901 -0.161071,4.911164 -1.117527,4.998811 -3.358732,9.256053 -5.932275,11.268547 -2.209746,1.727997 -3.915259,2.32035 -6.70676,2.329389 -2.248693,0.0073 -4.301446,-0.387813 -7.582808,-1.459399 -2.089408,-0.682326 -3.465173,-1.344455 -4.265583,-2.05293 -0.703946,-0.623099 -1.145526,-0.885245 -1.491167,-0.885245 -0.338291,0 -0.651678,0.198551 -0.650508,0.412137 0.0016,0.30036 0.582051,1.219709 1.252069,1.98323 1.414868,1.61231 1.348783,1.64244 -1.601207,0.730384 -2.783388,-0.860557 -3.101354,-0.946751 -3.495321,-0.947534 -0.389975,-6.62e-4 -0.306207,0.159011 0.379085,0.723053 0.740955,0.609855 1.522499,1.059237 3.078184,1.769901 0.75819,0.346358 1.456885,0.708087 1.552623,0.803832 0.159528,0.15953 0.148408,0.180534 -0.133008,0.251165 -0.168904,0.04241 -1.47995,-0.03279 -2.913447,-0.167007 -2.646627,-0.247867 -3.346243,-0.236426 -3.346243,0.05467 0,0.418582 1.427806,0.861246 3.829017,1.187116 1.888517,0.2563 2.224154,0.422313 1.739875,0.860591 -0.110964,0.100411 -1.052799,0.524898 -2.092985,0.943285 -1.040186,0.418395 -1.959616,0.829087 -2.043183,0.912653 -0.273324,0.273325 -0.03005,0.390592 0.810382,0.390592 0.654909,0 1.077512,-0.08548 2.15349,-0.435524 0.736273,-0.239534 1.444634,-0.435525 1.574129,-0.435525 0.398861,0 0.288853,0.542358 -0.363407,1.791714 -0.329361,0.630874 -0.598831,1.217876 -0.598831,1.304448 0,0.544361 0.84921,0.08791 1.932164,-1.038548 1.437513,-1.495261 1.517689,-1.512896 6.879899,-1.5141 3.786014,-6.62e-4 5.17214,-0.07261 6.551703,-0.338955 l 0.610526,-0.117885 0.820041,-1.104914 c 1.782039,-2.401123 3.046035,-3.594682 4.110292,-3.881259 1.442412,-0.388401 1.776023,1.397335 0.49372,2.642692 -0.823898,0.800161 -2.732922,1.778018 -4.426522,2.267391 l -0.86916,0.251146 -0.826542,1.039606 c -1.161277,1.460607 -3.384339,3.628415 -4.606529,4.492009 -1.208071,0.85363 -2.54706,1.547804 -4.115858,2.133793 l -1.122316,0.419211 0.966179,0.448907 c 0.531401,0.246898 1.403909,0.581952 1.93891,0.744572 0.866148,0.26327 1.151696,0.29638 2.60594,0.302146 1.469581,0.0056 1.747726,-0.02473 2.776444,-0.304906 1.757857,-0.47877 3.568732,-1.223448 7.567175,-3.111805 4.228651,-1.997079 6.687041,-3.001674 8.928155,-3.648419 5.013983,-1.44692 10.160719,-1.508215 13.525031,-0.16107 1.025943,0.410804 2.769929,1.540606 2.615882,1.694641 -0.03654,0.0365 -0.38023,-0.157662 -0.763882,-0.431428 -2.103927,-1.501325 -4.798659,-2.123852 -8.626449,-1.992807 -4.620446,0.158162 -7.86353,1.12977 -15.243225,4.566767 -5.037196,2.346006 -6.529622,2.947333 -8.438211,3.399905 -1.042471,0.24719 -3.039445,0.30171 -4.044978,0.110419 z m -3.353752,-2.016655 c 2.623214,-0.838011 4.665234,-2.095554 6.885236,-4.240161 1.179613,-1.139557 3.000105,-3.22227 2.897146,-3.314456 -0.02352,-0.021 -0.410189,0.03302 -0.859333,0.120201 -0.597782,0.116013 -2.158666,0.178863 -5.825078,0.234569 -4.426072,0.06727 -5.058329,0.09824 -5.437153,0.266467 -0.235755,0.104697 -0.927329,0.675527 -1.536811,1.268518 -0.858758,0.835499 -1.19751,1.094907 -1.505156,1.152626 -0.877507,0.164623 -0.864506,-0.429986 0.04417,-2.018925 0.546221,-0.955157 0.616268,-1.197688 0.345893,-1.197688 -0.115453,0 -0.743468,0.178894 -1.39555,0.397546 -1.843471,0.618107 -3.417672,0.634994 -3.417672,0.03666 0,-0.294845 0.313322,-0.473239 2.092768,-1.19159 2.374215,-0.958443 2.632558,-1.106189 2.180778,-1.247281 -0.104795,-0.0327 -0.900984,-0.161361 -1.769304,-0.28584 -2.564043,-0.367583 -3.715003,-0.750518 -3.788839,-1.260564 -0.08254,-0.570308 0.782618,-0.641375 3.826077,-0.314301 0.915852,0.09841 1.857846,0.161912 2.093317,0.141069 l 0.428126,-0.03787 -0.435524,-0.188632 c -2.239697,-0.970072 -3.532508,-1.703987 -4.284294,-2.432144 -1.21035,-1.172321 -0.416668,-1.186323 3.152417,-0.05565 2.051154,0.649805 2.492895,0.771958 2.492726,0.689311 -8.8e-5,-0.04175 -0.363446,-0.513663 -0.807468,-1.048851 -1.313119,-1.582713 -1.535713,-2.271403 -0.82877,-2.564229 0.542591,-0.22474 1.004918,-0.05524 1.916605,0.70275 1.306385,1.086128 2.55889,1.653433 5.63898,2.554111 2.758894,0.80674 4.036346,1.02485 6.057627,1.034233 1.984332,0.0092 2.766362,-0.12699 4.19188,-0.730152 3.097317,-1.310512 5.34033,-3.965537 7.116431,-8.42367 1.841023,-4.621036 2.079785,-8.780099 0.665131,-11.585519 -0.67218,-1.332995 -2.005589,-2.583714 -3.535241,-3.315989 -2.662881,-1.274786 -6.673771,-1.201289 -9.588151,0.175687 -0.942261,0.445191 -2.199668,1.402318 -3.153523,2.400429 -0.76839,0.80402 -1.120144,1.23104 -2.58761,3.141273 -1.082147,1.408657 -1.063371,1.409246 -2.423775,-0.07624 -2.792384,-3.049072 -4.829342,-4.534683 -7.507124,-5.475117 -4.618008,-1.621849 -8.404232,-0.885318 -10.78041,2.097113 -1.710931,2.147449 -2.226897,4.485678 -1.372703,6.220782 0.853143,1.732985 2.809901,3.174493 5.130348,3.779439 3.023714,0.788281 8.966447,-0.0073 12.666899,-1.695758 0.469371,-0.214168 1.634875,-0.855567 2.590016,-1.425349 0.95514,-0.569774 1.973634,-1.129382 2.263319,-1.243556 0.68004,-0.268049 1.717942,-0.383211 2.105406,-0.233615 0.569824,0.220005 0.407751,0.509458 -1.087598,1.942365 -0.808033,0.774294 -1.31334,1.332407 -1.207604,1.333787 0.100001,0.0016 0.687956,-0.118106 1.306565,-0.265351 1.588639,-0.378147 2.939273,-0.53333 3.925772,-0.451055 0.969151,0.08083 1.390851,0.211649 1.390851,0.431478 0,0.219992 -0.484045,0.421408 -2.395367,0.996724 -2.0189,0.607689 -3.077279,1.076623 -3.025869,1.340659 0.03206,0.164445 0.3077,0.181954 2.864428,0.181954 2.974095,0 3.482943,0.06905 3.407225,0.462229 -0.07777,0.403965 -1.396055,0.788999 -3.83251,1.119393 -2.041213,0.276805 -2.259597,0.319599 -2.19168,0.429484 0.02988,0.04846 0.746876,0.32294 1.59327,0.610114 0.846391,0.287172 1.83902,0.702443 2.205836,0.922813 0.647898,0.389233 1.203476,1.003199 1.121435,1.239252 -0.02352,0.06751 -0.332849,0.112526 -0.737418,0.107268 -0.55146,-0.0073 -1.111254,-0.149247 -2.680956,-0.6805 -1.091177,-0.369304 -2.034349,-0.671457 -2.095942,-0.671457 -0.322125,0 0.01119,0.45959 1.140146,1.571867 0.688659,0.678515 1.252118,1.307623 1.252118,1.398014 0,0.490221 -1.081583,0.231434 -3.348632,-0.801232 -2.322629,-1.057986 -2.624265,-1.116197 -5.416213,-1.045162 -1.257578,0.03199 -3.600596,0.116663 -5.206737,0.188141 -3.102057,0.138055 -6.266458,0.03246 -8.076641,-0.26935 -0.479067,-0.07987 -0.883209,-0.134857 -0.898077,-0.122139 -0.107948,0.09231 1.721317,3.988617 2.598309,5.534378 0.711173,1.253505 2.15597,3.40609 2.86573,4.26962 2.743396,3.33777 6.637666,6.607293 10.786135,9.055735 0.538957,0.318093 1.010282,0.578873 1.047397,0.579528 0.03715,6.62e-4 0.376515,-0.09754 0.754232,-0.218222 z m 11.387693,-8.230887 c 2.061102,-0.68432 3.930525,-1.81497 4.440946,-2.685929 0.565768,-0.965414 0.220514,-1.935623 -0.63191,-1.775716 -0.531155,0.09965 -1.574055,0.82366 -2.271401,1.576866 -0.781062,0.843656 -2.573938,3.169062 -2.443312,3.169062 0.02722,0 0.434765,-0.127928 0.905677,-0.284283 z M 19.42967,36.187915 c 0,-0.0201 -0.388249,-0.99585 -0.862771,-2.168293 -1.298077,-3.207251 -2.176352,-4.864818 -2.791085,-5.267612 -0.244767,-0.160375 -0.28819,-0.15951 -0.548212,0.01093 -0.860308,0.563693 -1.126863,2.921038 -0.492449,4.355224 0.305747,0.691202 1.23573,1.633508 2.077003,2.104541 0.912355,0.510814 2.617514,1.139639 2.617514,0.965284 z"
       id="path27199" />
  </g>
</svg>
